<svg xmlns="http://www.w3.org/2000/svg" width="48" height="48" viewBox="0 0 48 48"><path d="M12.9,24.868a.546.546,0,0,1,.351-.5H32.375a9.32,9.32,0,0,1-2.75-3.2,8.052,8.052,0,0,1-.825-2.375.387.387,0,0,0-.013-.1.307.307,0,0,1-.013-.075q0-.274.5-.275a.776.776,0,0,1,.388.062.479.479,0,0,1,.138.288,4.9,4.9,0,0,0,.275,1.025A7.688,7.688,0,0,0,31.9,22.706a7.405,7.405,0,0,0,2.976,1.887.281.281,0,0,1,0,.551A7.392,7.392,0,0,0,31.9,27.03a7.685,7.685,0,0,0-1.824,2.989,8.81,8.81,0,0,0-.275,1,.513.513,0,0,1-.138.312.772.772,0,0,1-.388.063q-.523,0-.524-.276a5.141,5.141,0,0,1,.149-.625,8.9,8.9,0,0,1,3.476-5.125H13.25A.545.545,0,0,1,12.9,24.868Z" style="fill:#404040"/></svg>